<?xml version="1.0" encoding="UTF-8" standalone="no"?>
<svg
   xmlns:dc="http://purl.org/dc/elements/1.1/"
   xmlns:cc="http://creativecommons.org/ns#"
   xmlns:rdf="http://www.w3.org/1999/02/22-rdf-syntax-ns#"
   xmlns:svg="http://www.w3.org/2000/svg"
   xmlns="http://www.w3.org/2000/svg"
   xmlns:sodipodi="http://sodipodi.sourceforge.net/DTD/sodipodi-0.dtd"
   xmlns:inkscape="http://www.inkscape.org/namespaces/inkscape"
   enable-background="new 0 0 24 24"
   height="24px"
   id="Layer_1"
   version="1.1"
   viewBox="0 0 24 24"
   width="24px"
   x="0px"
   xml:space="preserve"
   y="0px"
   inkscape:version="0.48.4 r9939"
   sodipodi:docname="cross.svg"><metadata
     id="metadata9"><rdf:RDF><cc:Work
         rdf:about=""><dc:format>image/svg+xml</dc:format><dc:type
           rdf:resource="http://purl.org/dc/dcmitype/StillImage" /></cc:Work></rdf:RDF></metadata><defs
     id="defs7" /><sodipodi:namedview
     pagecolor="#ffffff"
     bordercolor="#666666"
     borderopacity="1"
     objecttolerance="10"
     gridtolerance="10"
     guidetolerance="10"
     inkscape:pageopacity="0"
     inkscape:pageshadow="2"
     inkscape:window-width="1600"
     inkscape:window-height="878"
     id="namedview5"
     showgrid="false"
     inkscape:zoom="19.666667"
     inkscape:cx="12.340154"
     inkscape:cy="14.65523"
     inkscape:window-x="-8"
     inkscape:window-y="-8"
     inkscape:window-maximized="1"
     inkscape:current-layer="Layer_1" /><path
     d="m 21.363306,4.9387507 c 0.282307,0.2823066 0.282307,0.7450003 0,1.0273069 l -5.660559,5.6551484 c -0.282307,0.281404 -0.282307,0.744999 0,1.028208 l 5.657854,5.656953 c 0.282306,0.282305 0.282306,0.744999 0,1.028207 l -2.060928,2.053713 c -0.283208,0.281403 -0.746804,0.281403 -1.030013,0 l -5.656049,-5.656051 c -0.282307,-0.282308 -0.746805,-0.282308 -1.029111,0 l -5.6605602,5.652442 c -0.2823064,0.282306 -0.7468043,0.282306 -1.0291106,0 L 2.8366078,19.32826 c -0.2823065,-0.282306 -0.2823065,-0.745 0,-1.028209 l 5.6623636,-5.654244 c 0.2823063,-0.281406 0.2823063,-0.745001 0,-1.02821 L 2.8411175,5.9597439 c -0.2832084,-0.2823064 -0.2832084,-0.7459023 0,-1.0282086 L 4.9011427,2.8769217 C 5.185253,2.5955172 5.6479469,2.5955172 5.9311553,2.8778223 l 5.6551487,5.6551482 c 0.283207,0.2832085 0.746804,0.2832085 1.029111,9.006e-4 l 5.660559,-5.6524428 c 0.281404,-0.2814046 0.745001,-0.2814046 1.029111,0 l 2.058221,2.0573193 z"
     id="path3"
     inkscape:connector-curvature="0" /></svg>