<?xml version="1.0" encoding="UTF-8" standalone="no"?>
<svg
   xmlns:dc="http://purl.org/dc/elements/1.1/"
   xmlns:cc="http://creativecommons.org/ns#"
   xmlns:rdf="http://www.w3.org/1999/02/22-rdf-syntax-ns#"
   xmlns:svg="http://www.w3.org/2000/svg"
   xmlns="http://www.w3.org/2000/svg"
   xmlns:sodipodi="http://sodipodi.sourceforge.net/DTD/sodipodi-0.dtd"
   xmlns:inkscape="http://www.inkscape.org/namespaces/inkscape"
   width="567pt"
   height="529pt"
   viewBox="0 0 567 529"
   version="1.1"
   id="svg2"
   inkscape:version="0.48.4 r9939"
   sodipodi:docname="logo.svg">
  <sodipodi:namedview
     pagecolor="#ffffff"
     bordercolor="#666666"
     borderopacity="1"
     objecttolerance="10"
     gridtolerance="10"
     guidetolerance="10"
     inkscape:pageopacity="0"
     inkscape:pageshadow="2"
     inkscape:window-width="1600"
     inkscape:window-height="848"
     id="namedview38"
     showgrid="false"
     inkscape:zoom="1.4275992"
     inkscape:cx="497.31222"
     inkscape:cy="243.26856"
     inkscape:window-x="1592"
     inkscape:window-y="-8"
     inkscape:window-maximized="1"
     inkscape:current-layer="svg2" />
  <metadata
     id="metadata42">
    <rdf:RDF>
      <cc:Work
         rdf:about="">
        <dc:format>image/svg+xml</dc:format>
        <dc:type
           rdf:resource="http://purl.org/dc/dcmitype/StillImage" />
        <dc:title></dc:title>
      </cc:Work>
    </rdf:RDF>
  </metadata>
  <defs
     id="defs40" />
  <path
     id="path6"
     d=" M 341.72 62.80 C 349.48 60.82 357.68 61.86 365.56 62.56 C 366.93 68.95 366.35 75.52 366.83 82.00 C 368.01 93.62 367.12 105.32 367.80 116.96 C 368.95 128.27 368.50 139.66 368.92 151.00 C 369.76 161.68 369.19 172.43 370.24 183.10 C 370.60 192.71 370.27 202.34 370.76 211.95 C 372.27 225.59 371.07 239.35 372.29 253.00 C 372.34 266.85 373.64 280.65 373.40 294.51 C 400.31 302.41 427.28 310.10 454.24 317.86 C 457.30 318.89 461.03 319.19 463.20 321.88 C 464.65 323.53 464.41 325.86 464.51 327.90 C 464.44 339.12 464.19 350.34 464.51 361.55 C 474.34 363.92 484.25 365.97 494.05 368.52 C 498.04 369.64 502.29 370.15 506.01 372.10 C 509.25 373.82 507.76 378.48 505.02 379.96 C 494.12 387.57 482.87 394.70 472.05 402.43 C 478.30 410.96 484.85 419.27 491.32 427.63 C 495.07 432.54 499.78 437.15 500.85 443.50 C 498.29 444.42 495.55 445.29 492.85 444.40 C 483.75 442.07 474.73 439.40 465.50 437.64 C 464.53 440.55 465.08 445.11 461.44 446.21 C 457.34 447.00 453.13 446.48 448.99 446.59 C 340.00 446.57 231.00 446.58 122.01 446.59 C 117.87 446.49 113.67 446.96 109.57 446.27 C 105.42 444.95 106.26 439.59 105.31 436.22 C 95.72 438.64 86.05 440.79 76.50 443.38 C 73.44 444.28 70.24 443.90 67.16 443.40 C 67.61 440.43 68.08 437.33 69.96 434.89 C 78.03 423.75 86.62 412.97 94.29 401.55 C 84.36 394.52 74.34 387.63 64.27 380.80 C 61.90 379.09 58.81 376.88 59.37 373.54 C 61.98 370.26 66.45 369.87 70.20 368.77 C 81.92 365.97 93.64 363.04 105.54 361.09 C 105.62 350.69 105.46 340.29 105.57 329.90 C 105.36 326.61 107.71 323.94 110.47 322.52 C 149.83 300.25 189.17 277.95 228.48 255.58 C 231.01 254.05 234.04 253.14 236.91 254.33 C 261.70 261.96 286.51 269.48 311.31 277.04 C 318.61 279.22 325.83 281.66 333.22 283.53 C 333.80 267.69 334.21 251.85 334.67 236.01 C 336.06 223.38 335.07 210.65 335.85 198.00 C 337.09 185.75 336.29 173.41 337.17 161.14 C 337.59 154.76 337.33 148.37 337.90 142.00 C 338.91 131.63 338.02 121.18 338.77 110.79 C 339.99 97.97 339.40 85.07 339.91 72.22 C 340.24 69.05 340.22 65.70 341.72 62.80 Z"
     fill="#f4f4f4"
     style="fill:#ffffff" />
  <path
     id="path8"
     d=" M 282.44 156.40 C 284.35 156.34 286.26 156.30 288.18 156.28 C 289.02 163.16 288.60 170.10 288.69 177.00 C 288.64 182.90 289.07 188.87 287.91 194.70 C 286.05 194.67 284.20 194.63 282.35 194.58 C 281.47 190.45 281.44 186.21 281.65 182.01 C 282.00 173.47 281.17 164.89 282.44 156.40 Z"
     fill="#f4f4f4"
     style="fill:#ffffff" />
  <path
     id="path10"
     d=" M 395.64 183.70 C 397.31 183.33 399.04 183.37 400.75 183.28 C 401.32 189.16 397.36 193.82 394.67 198.63 C 391.47 203.83 388.74 209.32 385.39 214.43 C 384.08 216.62 381.48 217.32 379.30 218.31 C 378.77 215.97 377.76 213.39 379.10 211.12 C 382.30 204.84 386.32 199.00 389.68 192.79 C 391.55 189.71 392.98 186.23 395.64 183.70 Z"
     fill="#f4f4f4"
     style="fill:#ffffff" />
  <path
     id="path12"
     d=" M 173.28 187.47 C 174.25 185.60 176.64 186.09 178.28 186.61 C 181.69 190.45 183.75 195.26 186.39 199.62 C 189.19 204.88 192.71 209.77 195.10 215.24 C 196.08 217.41 194.43 219.56 193.89 221.62 C 191.29 220.19 188.66 218.53 187.26 215.81 C 183.73 209.62 180.32 203.37 176.63 197.28 C 174.96 194.27 172.64 191.12 173.28 187.47 Z"
     fill="#f4f4f4"
     style="fill:#ffffff" />
  <path
     id="path14"
     d=" M 91.12 269.84 C 88.95 267.54 91.80 263.08 94.83 264.62 C 100.78 267.14 106.01 271.07 111.71 274.08 C 115.88 276.64 120.66 278.42 124.18 281.91 C 125.74 284.10 123.43 286.35 122.36 288.17 C 114.28 284.28 106.77 279.34 98.90 275.06 C 96.22 273.47 93.29 272.12 91.12 269.84 Z"
     fill="#f4f4f4"
     style="fill:#ffffff" />
  <path
     id="path16"
     d=" M 458.43 278.44 C 464.89 274.90 471.00 270.52 478.14 268.42 C 478.57 270.22 479.12 272.01 479.30 273.87 C 475.90 277.52 471.15 279.41 466.94 281.92 C 461.31 284.93 455.99 288.51 450.24 291.28 C 447.76 292.90 445.68 290.09 443.62 289.06 C 447.14 283.80 453.22 281.55 458.43 278.44 Z"
     fill="#f4f4f4"
     style="fill:#ffffff" />
  <path
     id="path18"
     d=" M 73.00 376.62 C 123.49 363.14 175.87 358.25 227.96 356.54 C 233.65 356.52 239.30 355.65 244.99 355.67 C 272.67 355.57 300.34 355.49 328.02 355.72 C 350.31 357.23 372.68 357.36 394.90 359.80 C 428.48 362.76 461.85 368.39 494.47 376.92 C 485.31 384.13 475.18 390.01 465.66 396.73 C 464.27 397.88 462.41 399.13 462.40 401.15 C 462.32 403.37 463.82 405.20 465.02 406.93 C 471.80 415.84 479.08 424.38 485.32 433.69 C 471.35 430.91 457.59 427.12 443.55 424.72 C 413.23 418.98 382.45 416.14 351.67 414.61 C 339.75 414.85 327.93 413.29 316.01 413.45 C 291.03 413.50 266.03 413.14 241.05 413.74 C 231.40 414.98 221.64 414.25 211.95 414.87 C 201.60 415.85 191.17 415.99 180.85 417.25 C 147.30 419.77 114.10 425.73 81.41 433.58 C 84.90 428.10 88.94 423.00 92.71 417.72 C 96.90 411.88 101.72 406.42 104.85 399.90 C 95.14 390.98 83.30 384.81 73.00 376.62 Z"
     fill="#010101" />
  <path
     id="path20"
     d=" M 279.39 365.23 C 283.71 365.16 288.32 365.51 291.92 368.15 C 297.17 371.96 300.25 378.50 299.71 384.99 C 300.35 393.14 295.93 401.99 288.03 404.94 C 278.16 409.00 264.35 405.11 261.16 394.06 C 259.58 386.78 259.13 378.17 264.06 371.99 C 267.40 367.01 273.60 364.91 279.39 365.23 Z"
     fill="#f4f4f4" />
  <path
     id="path22"
     d=" M 221.93 367.92 C 226.38 366.13 231.32 366.76 236.01 366.57 C 240.70 366.74 246.08 365.77 250.06 368.90 C 253.14 371.29 255.53 375.61 253.90 379.50 C 253.17 382.30 251.13 384.42 249.27 386.52 C 253.45 390.89 254.46 397.17 254.57 402.99 C 254.91 406.66 248.99 407.49 246.91 405.15 C 244.48 401.22 245.66 395.89 242.78 392.21 C 239.16 389.61 234.36 390.81 230.20 390.50 C 230.07 394.94 230.73 399.44 229.89 403.82 C 229.31 407.79 222.20 407.93 221.48 403.88 C 220.03 396.69 221.06 389.29 220.47 382.02 C 220.57 377.34 219.42 372.16 221.93 367.92 Z"
     fill="#f4f4f4" />
  <path
     id="path24"
     d=" M 309.75 366.70 C 313.93 364.71 318.65 365.97 323.05 366.16 C 326.94 366.52 330.96 365.86 334.76 366.94 C 337.81 367.76 337.43 372.58 334.42 373.15 C 328.45 373.84 322.41 373.20 316.41 373.44 C 316.42 376.47 316.45 379.51 316.53 382.55 C 322.32 382.49 328.15 382.46 333.85 383.63 C 333.42 385.50 334.11 388.38 331.77 389.13 C 326.49 390.38 320.99 389.17 315.62 389.40 C 315.51 394.22 316.02 399.10 315.23 403.89 C 313.80 405.76 310.83 407.42 308.91 405.27 C 306.10 403.49 306.62 399.91 306.53 397.07 C 306.34 389.00 307.53 380.98 307.33 372.91 C 307.62 370.78 307.24 367.56 309.75 366.70 Z"
     fill="#f4f4f4" />
  <path
     sodipodi:nodetypes="ccccc"
     style="fill:#f4f4f4"
     inkscape:connector-curvature="0"
     id="path26"
     d="m 342.84,369.53 c 1.22156,-4.38281 7.52563,-4.04859 8.44,0.48 0.24094,5.90919 -0.63136,27.62537 -1.73094,34.22422 -1.24328,3.67437 -6.84504,3.66664 -8.06906,-0.28067 -0.49781,-7.02371 0.73376,-28.52059 1.36,-34.42355 z" />
  <path
     id="path28"
     d=" M 357.47 368.44 C 362.24 367.07 367.17 367.73 372.00 368.29 C 378.36 368.96 385.32 367.55 391.17 370.78 C 391.73 372.41 391.77 374.17 391.99 375.88 C 387.70 376.96 383.28 376.67 378.93 376.45 C 378.62 382.99 377.46 389.48 377.55 396.04 C 377.43 399.68 377.67 403.60 375.81 406.89 C 373.79 409.91 367.80 408.52 368.33 404.52 C 368.07 394.96 369.12 385.44 369.76 375.92 C 365.56 375.67 361.39 375.05 357.39 373.72 C 357.41 371.96 357.44 370.20 357.47 368.44 Z"
     fill="#f4f4f4" />
  <path
     id="path30"
     d=" M 183.56 372.98 C 183.37 370.48 185.78 368.83 188.03 368.61 C 192.34 368.20 196.69 368.40 201.01 368.30 C 204.64 368.35 208.67 367.91 211.77 370.22 C 217.85 374.81 217.97 385.30 211.90 389.94 C 206.48 393.56 199.64 393.28 193.40 393.50 C 193.56 397.63 194.11 401.81 193.45 405.93 C 192.33 409.10 187.90 409.82 185.86 407.13 C 184.15 404.04 184.73 400.33 184.39 396.94 C 183.81 388.97 183.15 380.97 183.56 372.98 Z"
     fill="#f4f4f4" />
  <path
     id="path32"
     d=" M 275.41 373.29 C 278.02 372.22 281.01 372.27 283.70 373.04 C 287.67 374.21 289.92 378.35 290.53 382.21 C 290.94 386.35 290.95 390.92 288.45 394.47 C 285.10 399.82 276.50 400.30 272.34 395.69 C 269.06 392.37 269.04 387.38 269.28 383.03 C 269.36 379.00 271.73 375.02 275.41 373.29 Z"
     fill="#010101" />
  <path
     id="path34"
     d=" M 192.48 375.52 C 196.26 374.92 200.31 374.01 203.88 375.94 C 207.77 377.26 207.80 383.47 203.98 384.92 C 200.42 386.35 196.46 386.20 192.69 386.51 C 192.56 382.84 192.51 379.18 192.48 375.52 Z"
     fill="#010101" />
  <path
     id="path36"
     d=" M 229.48 374.26 C 233.71 373.46 238.37 372.58 242.44 374.52 C 245.74 375.99 245.41 381.83 242.05 383.05 C 238.17 384.89 233.77 384.34 229.62 384.41 C 229.55 381.03 229.52 377.64 229.48 374.26 Z"
     fill="#010101" />
</svg>
